<svg width="32" height="32" viewBox="0 0 32 32" fill="none" xmlns="http://www.w3.org/2000/svg">
<path d="M16 26C10.4861 26 6 21.5139 6 16C6 10.4861 10.4861 6 16 6C21.5139 6 26 10.4861 26 16C26 21.5139 21.5139 26 16 26ZM16 6.61684C10.8261 6.61684 6.61684 10.8261 6.61684 16C6.61684 21.1739 10.8261 25.3832 16 25.3832C21.1739 25.3832 25.3832 21.1739 25.3832 16C25.3832 10.8261 21.1739 6.61684 16 6.61684Z" fill="black"/>
<path d="M21.9854 19.4542C21.9571 19.1799 21.8933 18.9655 21.7844 18.801C21.5985 18.5706 20.5786 18.2427 18.7415 17.8245C18.3971 17.7638 18.0343 17.9624 17.6583 18.4146C17.6001 18.4863 17.5393 18.5506 17.4777 18.6063C17.212 18.8452 17.0049 18.9512 16.6112 18.7461C15.5504 18.1925 13.6828 15.9021 13.2721 15.2291C13.14 14.9273 13.2402 14.6557 13.5633 14.427C14.1487 14.0461 14.4026 13.5788 14.3183 13.0376L13.5823 10.4204C13.5285 10.2287 13.3404 10 12.7508 10C12.1987 10 11.566 10.2076 11.2726 10.4083C9.11183 11.8881 10.0511 14.9182 11.5187 17.073C13.8365 20.0946 16.1434 21.7312 18.3588 21.9344C18.6091 21.978 18.8655 22 19.1211 22C20.1083 22 20.9669 21.6826 21.477 21.1293C21.8832 20.6885 22.054 20.1251 21.9851 19.4542H21.9854Z" fill="black"/>
</svg>
