<svg width="28" height="28" viewBox="0 0 28 28" fill="none" xmlns="http://www.w3.org/2000/svg">
<g clip-path="url(#clip0_1_1510)">
<path fill-rule="evenodd" clip-rule="evenodd" d="M2.47057 19.3529C2.47057 17.761 3.76103 16.4706 5.35293 16.4706C6.94483 16.4706 8.23529 17.761 8.23529 19.3529C8.23529 20.9448 6.94483 22.2353 5.35293 22.2353C3.76103 22.2353 2.47057 20.9448 2.47057 19.3529ZM6.58827 19.3529C6.58827 18.6707 6.03521 18.1177 5.35298 18.1177C4.67076 18.1177 4.1177 18.6707 4.1177 19.3529C4.1177 20.0352 4.67076 20.5882 5.35298 20.5882C6.03521 20.5882 6.58827 20.0352 6.58827 19.3529ZM19.7647 19.3529C19.7647 17.761 21.0552 16.4706 22.6471 16.4706C24.239 16.4706 25.5294 17.761 25.5294 19.3529C25.5294 20.9448 24.239 22.2353 22.6471 22.2353C21.0552 22.2353 19.7647 20.9448 19.7647 19.3529ZM23.8824 19.3529C23.8824 18.6707 23.3293 18.1177 22.6471 18.1177C21.9649 18.1177 21.4118 18.6707 21.4118 19.3529C21.4118 20.0352 21.9649 20.5882 22.6471 20.5882C23.3293 20.5883 23.8824 20.0352 23.8824 19.3529Z" fill="black"/>
<path fill-rule="evenodd" clip-rule="evenodd" d="M25.9412 5.76477H13.1765C12.7666 5.76477 12.4192 6.0661 12.3612 6.47183L11.7704 10.6077C11.7 11.101 11.2056 11.5295 10.7062 11.5295H3.70591C3.53692 11.5295 3.37204 11.5814 3.23363 11.6783C3.07246 11.7912 2.85694 11.9459 2.57442 12.1512C2.37728 12.2946 2.16782 12.448 1.95935 12.6014C1.83434 12.6934 1.73732 12.765 1.69953 12.7934C0.73468 13.4688 7.62939e-06 14.881 7.62939e-06 16.0599V18.5295C7.62939e-06 18.9843 0.368711 19.353 0.823547 19.353H1.64709C1.64709 17.3063 3.30625 15.6471 5.35299 15.6471C7.39972 15.6471 9.05889 17.3063 9.05889 19.353H18.9412C18.9412 17.3063 20.6004 15.6471 22.6471 15.6471C24.6939 15.6471 26.353 17.3063 26.353 19.353H27.1766C27.6314 19.353 28.0001 18.9843 28.0001 18.5295V14.4118C28.0001 14.3689 27.9967 14.3259 27.9901 14.2834L26.9033 7.40025C27.2922 7.33441 27.5884 6.99595 27.5884 6.58831C27.5884 6.13347 27.2197 5.76477 26.7648 5.76477H25.9412Z" fill="black"/>
<path fill-rule="evenodd" clip-rule="evenodd" d="M7.00001 7.41185C7.70072 6.47757 9.12576 5.76477 10.2942 5.76477H13.1765C13.6314 5.76477 14.0001 6.13347 14.0001 6.58831C14.0001 7.04315 13.6314 7.41185 13.1765 7.41185H10.2942C9.64426 7.41185 8.7074 7.88047 8.3177 8.40011L5.60006 12.0236C5.54406 12.0983 5.47576 12.1629 5.39804 12.2147L4.16276 13.0383C3.78433 13.2905 3.273 13.1883 3.02072 12.8098C2.76845 12.4314 2.87072 11.9201 3.24915 11.6678L4.36494 10.9239L7.00001 7.41185Z" fill="black"/>
</g>
<defs>
<clipPath id="clip0_1_1510">
<rect width="28" height="28" fill="white"/>
</clipPath>
</defs>
</svg>
