<svg width="35" height="34" viewBox="0 0 35 34" fill="none" xmlns="http://www.w3.org/2000/svg">
<g clip-path="url(#clip0_1_1918)">
<path d="M34.75 17C34.75 7.61016 27.1398 0 17.75 0C8.36016 0 0.75 7.61016 0.75 17C0.75 26.3898 8.36016 34 17.75 34C17.8496 34 17.9492 34 18.0488 33.9934V20.7652H14.3965V16.5086H18.0488V13.3742C18.0488 9.7418 20.2668 7.76289 23.5074 7.76289C25.0613 7.76289 26.3961 7.87578 26.7812 7.92891V11.7273H24.55C22.7902 11.7273 22.4449 12.5641 22.4449 13.7926V16.502H26.6617L26.1105 20.7586H22.4449V33.3426C29.5504 31.3039 34.75 24.7629 34.75 17Z" fill="#000509"/>
</g>
<defs>
<clipPath id="clip0_1_1918">
<rect width="34" height="34" fill="white" transform="translate(0.75)"/>
</clipPath>
</defs>
</svg>
