<svg width="29" height="28" viewBox="0 0 29 28" fill="none" xmlns="http://www.w3.org/2000/svg">
<path fill-rule="evenodd" clip-rule="evenodd" d="M25.7721 13.9999C25.7721 20.4432 20.5487 25.6666 14.1054 25.6666C7.66212 25.6666 2.43878 20.4432 2.43878 13.9999C2.43878 7.55659 7.66212 2.33325 14.1054 2.33325C20.5487 2.33325 25.7721 7.55659 25.7721 13.9999ZM9.43878 9.62492C9.92203 9.62492 10.3138 10.0167 10.3138 10.4999V13.1249H13.2304V10.4999C13.2304 10.0167 13.6222 9.62492 14.1054 9.62492C14.5887 9.62492 14.9804 10.0167 14.9804 10.4999V13.1249H15.2721C15.8277 13.1249 16.2005 13.1245 16.4893 13.1047C16.7701 13.0856 16.9068 13.0512 16.9969 13.0139C17.3541 12.8659 17.6381 12.582 17.7862 12.2247C17.8234 12.1347 17.8578 11.9979 17.8769 11.7171C17.8967 11.4283 17.8971 11.0555 17.8971 10.4999C17.8971 10.0167 18.2889 9.62492 18.7721 9.62492C19.2554 9.62492 19.6471 10.0167 19.6471 10.4999V10.5294C19.6471 11.0479 19.6471 11.4808 19.6229 11.8362C19.5977 12.2062 19.5433 12.5556 19.4029 12.8944C19.0773 13.6805 18.4527 14.3051 17.6666 14.6307C17.3278 14.7711 16.9784 14.8255 16.6084 14.8507C16.253 14.8749 15.8201 14.8749 15.3016 14.8749H14.9804V17.4999C14.9804 17.9832 14.5887 18.3749 14.1054 18.3749C13.6222 18.3749 13.2304 17.9832 13.2304 17.4999V14.8749H10.3138V17.4999C10.3138 17.9832 9.92203 18.3749 9.43878 18.3749C8.95554 18.3749 8.56378 17.9832 8.56378 17.4999V10.4999C8.56378 10.0167 8.95554 9.62492 9.43878 9.62492Z" fill="black"/>
</svg>
