<svg width="28" height="18" viewBox="0 0 28 18" fill="none" xmlns="http://www.w3.org/2000/svg">
<path d="M27.1023 11.5297C27.0173 11.2337 26.9576 10.8696 26.916 10.5332C26.6266 8.16254 24.2843 7.08756 22.5558 5.85764C20.5753 4.44926 18.6074 3.08851 16.4996 1.87366C13.4948 0.14092 9.71879 0.363391 6.36846 0.60636C5.71673 0.653387 4.942 0.701619 4.35899 1.03382C3.68615 1.41726 4.80815 1.28101 4.8594 1.6741C4.91065 2.07081 4.38009 2.77018 4.22093 3.12227C3.98097 3.65343 3.75669 4.19423 3.45886 4.69705C3.25266 5.04553 2.38388 6.3677 2.41583 5.22037C2.43513 4.53306 2.77878 3.89037 3.06878 3.28385C3.22252 2.9619 3.80191 2.17692 3.66927 1.81337C3.58366 1.57884 3.36902 1.48177 3.35455 1.49504C3.17368 1.66265 3.07179 2.08709 2.9687 2.30594C2.75949 2.75209 2.54064 3.19281 2.32781 3.63715C1.87805 4.57708 1.45059 5.54594 1.29022 6.58293C1.17386 7.33777 1.23415 8.10888 1.01167 8.84683C0.815128 9.49917 0.466048 10.1033 0.317131 10.7713C0.251415 11.0637 -0.257435 12.5915 0.168817 12.7753C0.386465 12.87 0.588437 12.4847 0.661991 12.3346C-0.39128 14.4936 0.572159 17.3068 3.22915 17.5443C4.97998 17.7005 6.19724 16.5019 6.84717 15.0043C7.25895 15.3401 8.07408 15.2448 8.5769 15.2448C11.8736 15.2485 15.1714 15.2448 18.4669 15.2448C19.4099 15.2448 20.3347 15.023 20.4764 13.942C20.5909 14.9259 20.8056 15.8146 21.5224 16.5417C22.3375 17.3683 23.7303 17.7529 24.8149 17.3447C25.8778 16.945 26.6073 15.9653 27.1487 15.0103C27.1608 15.0706 27.2078 15.1285 27.2205 15.1851C28.3931 14.6962 28.0482 12.6614 27.455 11.8758C27.4019 11.8023 27.124 11.6009 27.1023 11.5297ZM5.50873 14.3453C5.50752 14.3586 5.50631 14.3718 5.5045 14.3845C5.21571 16.8323 1.34749 16.5242 1.57057 13.9854C1.58202 13.8521 1.60795 13.7249 1.64352 13.6037C1.65557 13.5627 1.67487 13.5248 1.68934 13.4874C1.71828 13.4084 1.74661 13.3282 1.7846 13.2553C1.80751 13.2106 1.83705 13.1702 1.86358 13.1293C1.90276 13.0665 1.94075 13.002 1.98657 12.943C2.01912 12.9032 2.05711 12.8664 2.09268 12.829C2.14031 12.7772 2.18733 12.7253 2.24039 12.6795C2.28139 12.6427 2.326 12.6138 2.36941 12.5818C2.42428 12.542 2.47974 12.5004 2.53883 12.4667C2.58646 12.4383 2.6365 12.416 2.68654 12.3925C2.74803 12.3624 2.80893 12.334 2.87344 12.3111C2.92649 12.2924 2.98136 12.278 3.03562 12.2641C3.10194 12.2472 3.16826 12.2309 3.23699 12.2207C3.29366 12.2122 3.35154 12.208 3.40942 12.2062C3.50709 12.199 3.60536 12.1935 3.70605 12.2026C4.77439 12.296 5.607 13.3077 5.50873 14.3453ZM20.2672 6.74451L7.49891 5.70571C6.75372 5.64482 6.11947 4.98645 6.21412 4.24428C6.34917 3.18377 6.73865 1.83568 7.82869 1.51855C8.93623 1.19721 10.5972 1.2587 11.759 1.36119C12.5042 1.42691 13.6847 1.6952 14.3865 1.95385C16.1258 2.59473 19.2043 3.9175 20.8478 5.7443C21.347 6.30078 21.0118 6.8048 20.2672 6.74451ZM25.829 14.3435C25.8163 14.4719 25.7928 14.5961 25.7584 14.7143C25.7458 14.7553 25.7247 14.7957 25.7102 14.8367C25.6818 14.9132 25.6547 14.991 25.6179 15.064C25.5944 15.1074 25.5631 15.1496 25.5371 15.1924C25.4992 15.2551 25.4606 15.3172 25.4166 15.3751C25.3828 15.4161 25.346 15.454 25.3087 15.4914C25.2616 15.5421 25.2152 15.5939 25.1633 15.6397C25.1224 15.6759 25.0753 15.7055 25.0307 15.7386C24.9764 15.7766 24.9216 15.8188 24.8655 15.852C24.8173 15.8809 24.7654 15.9038 24.7148 15.9279C24.6539 15.9575 24.5948 15.9858 24.5303 16.0081C24.476 16.0268 24.42 16.0437 24.3651 16.0563C24.3024 16.072 24.2355 16.0883 24.1698 16.0979C24.1107 16.1082 24.0528 16.1106 23.9907 16.1124C23.8948 16.1203 23.7996 16.1251 23.6995 16.1178C22.6155 16.0226 21.8166 15.0664 21.9113 13.9842C21.924 13.8503 21.9487 13.7231 21.983 13.6007C21.9957 13.5615 22.0168 13.5229 22.0301 13.485C22.0584 13.406 22.0879 13.3252 22.1253 13.2528C22.147 13.2082 22.1784 13.1672 22.2043 13.1256C22.2423 13.0629 22.2809 12.9978 22.3267 12.9411C22.3599 12.9008 22.3966 12.8634 22.434 12.8266C22.481 12.7747 22.5281 12.7211 22.5811 12.6771C22.6203 12.6397 22.6691 12.612 22.7107 12.5794C22.7662 12.5402 22.8223 12.4962 22.879 12.4649C22.9254 12.4359 22.976 12.4142 23.0255 12.3895C23.0876 12.3593 23.1478 12.331 23.2136 12.3081C23.2678 12.2906 23.3239 12.2743 23.3769 12.2623C23.4427 12.2448 23.5114 12.2273 23.5783 12.2189C23.6362 12.2092 23.6923 12.2062 23.7514 12.2038C23.849 12.1978 23.9467 12.1911 24.0468 12.2002C25.1302 12.2954 25.9284 13.2528 25.8344 14.3338C25.8302 14.3375 25.829 14.3399 25.829 14.3435Z" fill="#010002"/>
</svg>
