<svg width="16" height="28" viewBox="0 0 16 28" fill="none" xmlns="http://www.w3.org/2000/svg">
<path d="M15.9159 10.6433C15.8234 10.8289 15.6338 10.9463 15.4264 10.9463H11.1318L8.54019 27.5373C8.49868 27.8036 8.26938 28 7.99988 28H7.99551C7.72458 27.9978 7.4961 27.7974 7.45848 27.5291L5.12715 10.9463H0.573333C0.271294 10.9463 0.0264587 10.7014 0.0264587 10.3994C0.0264587 10.2811 0.0648493 10.1659 0.135834 10.0713L7.56293 0.218803C7.74416 -0.0228062 8.08694 -0.071806 8.32855 0.109428C8.37 0.140545 8.40681 0.177349 8.43793 0.218803L15.8645 10.0713C15.9885 10.2369 16.0083 10.4583 15.9159 10.6433Z" fill="#000509"/>
</svg>
