<svg width="35" height="34" viewBox="0 0 35 34" fill="none" xmlns="http://www.w3.org/2000/svg">
<g clip-path="url(#clip0_1_1925)">
<path d="M17.25 20.4883C19.1754 20.4883 20.7363 18.9274 20.7363 17.002C20.7363 15.0765 19.1754 13.5156 17.25 13.5156C15.3246 13.5156 13.7637 15.0765 13.7637 17.002C13.7637 18.9274 15.3246 20.4883 17.25 20.4883Z" fill="#000509"/>
<path d="M17.25 0.398438C8.08122 0.398438 0.648438 7.83122 0.648438 17C0.648438 26.1688 8.08122 33.6016 17.25 33.6016C26.4188 33.6016 33.8516 26.1688 33.8516 17C33.8516 7.83122 26.4188 0.398438 17.25 0.398438ZM27.507 21.2195C27.4273 22.7978 26.9838 24.3542 25.8335 25.4922C24.6722 26.6411 23.1084 27.0691 21.5148 27.148H12.9853C11.3915 27.0691 9.82791 26.6413 8.66653 25.4922C7.51624 24.3542 7.07278 22.7978 6.99309 21.2195V12.7805C7.07278 11.2022 7.5163 9.64577 8.66653 8.5077C9.82791 7.35887 11.3917 6.93082 12.9853 6.852H21.5147C23.1085 6.93082 24.6721 7.35868 25.8335 8.5077C26.9838 9.64577 27.4272 11.2022 27.5069 12.7805L27.507 21.2195Z" fill="#000509"/>
<path d="M21.4076 8.77711C19.33 8.72013 15.1717 8.72013 13.0941 8.77711C12.0129 8.80679 10.7873 9.07594 10.017 9.89871C9.2165 10.754 8.91402 11.7872 8.88334 12.9432C8.82942 14.972 8.88334 21.0615 8.88334 21.0615C8.91847 22.2173 9.2165 23.2507 10.017 24.1059C10.7873 24.929 12.0129 25.1978 13.0941 25.2275C15.1717 25.2845 19.33 25.2845 21.4076 25.2275C22.4888 25.1978 23.7144 24.9287 24.4848 24.1059C25.2852 23.2507 25.5877 22.2174 25.6184 21.0615V12.9432C25.5877 11.7872 25.2852 10.754 24.4848 9.89871C23.7142 9.07567 22.4885 8.80679 21.4076 8.77711ZM17.2506 22.4061C16.1818 22.4061 15.1371 22.0892 14.2484 21.4954C13.3597 20.9016 12.6671 20.0577 12.2581 19.0703C11.8491 18.0828 11.7421 16.9963 11.9506 15.9481C12.1591 14.8999 12.6738 13.937 13.4295 13.1812C14.1853 12.4255 15.1481 11.9108 16.1964 11.7023C17.2446 11.4938 18.3311 11.6008 19.3185 12.0099C20.306 12.4189 21.1499 13.1115 21.7437 14.0001C22.3375 14.8888 22.6544 15.9335 22.6544 17.0023C22.6544 18.4355 22.0851 19.81 21.0717 20.8234C20.0583 21.8368 18.6838 22.4061 17.2506 22.4061ZM22.6774 12.7139C22.4636 12.7139 22.2547 12.6505 22.077 12.5317C21.8993 12.4129 21.7608 12.2441 21.6791 12.0466C21.5973 11.8491 21.576 11.6318 21.6177 11.4222C21.6594 11.2125 21.7624 11.02 21.9135 10.8689C22.0647 10.7177 22.2573 10.6148 22.4669 10.5732C22.6765 10.5315 22.8938 10.5529 23.0913 10.6347C23.2888 10.7165 23.4575 10.855 23.5763 11.0328C23.695 11.2105 23.7584 11.4194 23.7584 11.6332C23.7584 11.7751 23.7304 11.9157 23.6761 12.0468C23.6218 12.178 23.5422 12.2971 23.4418 12.3975C23.3414 12.4978 23.2222 12.5774 23.0911 12.6317C22.9599 12.686 22.8193 12.714 22.6774 12.7139Z" fill="#000509"/>
</g>
<defs>
<clipPath id="clip0_1_1925">
<rect width="34" height="34" fill="white" transform="translate(0.25)"/>
</clipPath>
</defs>
</svg>
