<svg width="121" height="43" viewBox="0 0 121 43" fill="none" xmlns="http://www.w3.org/2000/svg">
<path fill-rule="evenodd" clip-rule="evenodd" d="M17.4199 0.980469H22.0527C22.473 1.08178 22.7399 1.48703 22.7339 1.89813C22.7369 9.31541 22.7339 16.7327 22.7349 24.149C22.7956 25.8265 23.4191 25.2897 24.4299 25.5138C24.8163 25.7077 24.878 26.1918 24.9039 26.5708C24.9159 27.7661 24.9009 28.9614 24.9109 30.1557C24.9139 30.8318 24.6649 31.4075 23.8732 31.3987C22.4919 31.3968 21.0837 31.086 19.9126 30.3486C19.331 29.9959 18.834 29.5264 18.3839 29.0247C16.1939 30.7197 13.3487 31.577 10.5642 31.3685C8.04062 31.2078 5.59273 30.1742 3.72545 28.5084C-1.01994 24.3341 -1.27489 16.9704 3.20759 12.5263C4.98624 10.7114 7.41918 9.52193 9.97263 9.22579C12.2751 8.94425 14.6573 9.37483 16.7068 10.4376C16.7048 7.70317 16.7098 4.96772 16.7038 2.23324C16.647 1.72473 16.8383 1.09347 17.4199 0.980469ZM10.4467 15.1292C8.37424 15.4634 6.61351 17.1068 6.16636 19.1126C5.53696 21.7496 7.14531 24.4539 9.78541 25.2508C12.4783 26.0847 15.4092 24.6595 16.3772 22.0623C17.7953 18.3391 14.4621 14.4064 10.4467 15.1292Z" fill="white"/>
<path d="M52.8461 0.980469H57.4799C57.9749 1.09055 58.198 1.60686 58.1771 2.06374C58.1761 11.5375 58.181 21.0112 58.1761 30.485C58.186 30.9321 57.8394 31.3919 57.3564 31.3929C55.9035 31.4085 54.4475 31.4007 52.9945 31.3977C52.4945 31.4202 52.1101 30.9506 52.129 30.485C52.1251 21.0112 52.129 11.5375 52.1271 2.06471C52.1002 1.60101 52.3372 1.07399 52.8461 0.980469Z" fill="white"/>
<path d="M63.0093 0.980469H67.6332C67.9678 1.05645 68.2237 1.32922 68.2924 1.65654C68.3851 2.12024 68.3253 2.59661 68.3412 3.06518C68.3422 12.1785 68.3403 21.2898 68.3422 30.4022C68.3811 30.8824 68.0236 31.4036 67.4987 31.3948C66.1603 31.4114 64.8228 31.3919 63.4853 31.4046C63.2533 31.3987 63.0103 31.4163 62.7952 31.3237C62.4755 31.1756 62.2863 30.8308 62.2922 30.4908C62.2903 21.0141 62.2932 11.5375 62.2912 2.06082C62.2634 1.60004 62.5024 1.07399 63.0093 0.980469Z" fill="white"/>
<path fill-rule="evenodd" clip-rule="evenodd" d="M89.2969 8.48047C90.5726 8.48242 91.8494 8.48242 93.1271 8.48047C93.8621 8.48242 94.2136 8.82824 94.2216 9.56471C94.2206 14.455 94.2216 19.3443 94.2206 24.2337C94.2315 24.6282 94.2933 25.0929 94.6498 25.3413C95.0252 25.5926 95.5043 25.4105 95.9156 25.5244C96.3119 25.7436 96.3617 26.2512 96.3906 26.6506C96.3966 27.8722 96.3936 29.0947 96.3926 30.3163C96.4145 30.818 96.053 31.3188 95.5292 31.3831C93.4159 31.4844 91.207 30.6709 89.8725 29.0246C85.2974 32.5384 78.6688 32.1127 74.6494 27.9774C70.1142 23.4319 70.4996 15.9504 75.4292 11.8384C78.9039 8.8828 84.8493 7.77907 88.1925 11.514C88.1935 10.836 88.1895 10.157 88.1925 9.47996C88.1945 8.75811 88.6307 8.48826 89.2969 8.48047ZM81.9343 15.1291C80.0601 15.435 78.4179 16.8008 77.8084 18.5611C76.2648 22.8533 80.8648 26.9944 85.1281 24.9838C87.2942 23.9892 88.553 21.62 88.0929 19.3141C87.573 16.5358 84.7806 14.6196 81.9343 15.1291Z" fill="white"/>
<path d="M99.7149 9.64028C99.7119 9.07332 100.175 8.47713 100.789 8.48492C102.073 8.47323 103.357 8.48298 104.641 8.48005C105.366 8.41868 105.832 9.17853 105.747 9.81563C105.744 10.7177 105.739 11.6198 105.751 12.5199C106.243 11.0285 107.461 9.70165 109.052 9.3266C110.792 9.00415 112.609 9.10839 114.307 9.59255C115.057 9.78056 115.077 10.2754 114.827 10.8862C114.371 12.0192 113.928 13.158 113.473 14.2909C113.061 15.3323 112.204 15.0917 111.363 15.0537C109.329 14.931 107.299 16.0746 106.368 17.8447C105.939 18.625 105.744 19.5134 105.745 20.397C105.744 23.7023 105.743 27.0086 105.746 30.314C105.77 31.0806 105.38 31.4089 104.636 31.4021C103.269 31.3914 101.903 31.4089 100.536 31.3934C100.054 31.3856 99.7168 30.9287 99.7178 30.4835C99.7129 23.5357 99.7188 16.588 99.7149 9.64028Z" fill="white"/>
<path fill-rule="evenodd" clip-rule="evenodd" d="M43.3553 10.6669C45.7444 12.0336 47.5977 14.2752 48.4353 16.8577C50.3494 22.5945 47.1327 28.8526 41.3057 30.7941C37.1728 32.1891 32.5469 31.1263 29.4925 28.0625C25.6664 24.2944 25.1435 18.2829 28.2557 13.9332C31.6088 9.15498 38.2723 7.7249 43.3553 10.6669ZM36.6828 15.1276C34.7219 15.449 33.0289 16.9376 32.4862 18.806C31.6705 21.4898 33.2361 24.3831 35.9668 25.2316C39.8348 26.4824 43.7506 23.0436 42.8065 19.1041C42.1781 16.4252 39.4584 14.6298 36.6828 15.1276Z" fill="white"/>
<path d="M114.017 24.4841C116.358 24.6955 117.664 26.712 117.378 28.8951C117.184 30.0086 116.42 30.9779 115.414 31.5088C113.978 32.2667 112.035 31.9696 110.895 30.8211C108.367 28.2727 110.537 24.0808 114.017 24.4841Z" fill="white"/>
<path fill-rule="evenodd" clip-rule="evenodd" d="M62.7363 38.2373V42.2479C62.7363 42.5295 62.5033 42.7584 62.2145 42.7584C61.9267 42.7584 61.6926 42.5295 61.6926 42.2479V40.2002H59.1492V42.2479C59.1492 42.5295 58.9151 42.7584 58.6273 42.7584C58.3395 42.7584 58.1055 42.5295 58.1055 42.2479V38.2373C58.1055 36.8764 59.0018 35.873 60.4199 35.8516C61.8291 35.8701 62.7363 36.8871 62.7363 38.2373ZM59.1492 38.2373V39.1793H61.6926V38.2373C61.6926 37.4658 61.2505 36.8725 60.4219 36.8725C59.5794 36.8725 59.1492 37.4511 59.1492 38.2373Z" fill="white"/>
<path fill-rule="evenodd" clip-rule="evenodd" d="M101.358 38.2373V42.2479C101.358 42.5295 101.124 42.7584 100.837 42.7584C100.548 42.7584 100.315 42.5295 100.315 42.2479V40.2002H97.7703V42.2479C97.7703 42.5295 97.5362 42.7584 97.2484 42.7584C96.9606 42.7584 96.7266 42.5295 96.7266 42.2479V38.2373C96.7266 36.8764 97.6229 35.873 99.042 35.8516C100.451 35.8701 101.358 36.8871 101.358 38.2373ZM97.7703 38.2373V39.1793H100.315V38.2373C100.315 37.4658 99.8716 36.8725 99.043 36.8725C98.2005 36.8725 97.7703 37.4511 97.7703 38.2373Z" fill="white"/>
<path fill-rule="evenodd" clip-rule="evenodd" d="M77.5444 39.7258C78.0125 40.1116 78.3481 40.7 78.3481 41.3079V42.2479C78.3481 42.5295 78.114 42.7584 77.8262 42.7584C77.5384 42.7584 77.3044 42.5295 77.3044 42.2479V41.3079C77.3044 40.6932 76.6342 40.2002 76.0336 40.2002H74.7898V42.2479C74.7898 42.5295 74.5557 42.7584 74.2679 42.7584C73.9801 42.7584 73.7461 42.5295 73.7461 42.2479V37.6898C73.7461 36.55 74.4392 35.8516 75.6104 35.8516C75.7946 35.8516 75.9779 35.8516 76.1611 35.8516C77.3751 35.8516 78.2804 36.7283 78.3262 37.909C78.3531 38.6036 78.1111 39.2865 77.5444 39.7258ZM74.7898 37.6898V39.1793H76.0715C76.8622 39.1793 77.3163 38.7166 77.2865 37.9441C77.2616 37.3109 76.8124 36.8725 76.1611 36.8725C75.9779 36.8725 75.7946 36.8725 75.6104 36.8725C75.0158 36.8725 74.7898 37.1121 74.7898 37.6898Z" fill="white"/>
<path fill-rule="evenodd" clip-rule="evenodd" d="M68.3178 39.7258C68.7859 40.1116 69.1215 40.7 69.1215 41.3079V42.2479C69.1215 42.5295 68.8875 42.7584 68.5997 42.7584C68.3119 42.7584 68.0778 42.5295 68.0778 42.2479V41.3079C68.0778 40.6932 67.4076 40.2002 66.8071 40.2002H65.5632V42.2479C65.5632 42.5295 65.3292 42.7584 65.0414 42.7584C64.7536 42.7584 64.5195 42.5295 64.5195 42.2479V37.6898C64.5195 36.55 65.2127 35.8516 66.3838 35.8516C66.5681 35.8516 66.7513 35.8516 66.9346 35.8516C68.1485 35.8516 69.0538 36.7283 69.0996 37.909C69.1265 38.6036 68.8845 39.2865 68.3178 39.7258ZM65.5632 37.6898V39.1793H66.8449C67.6357 39.1793 68.0898 38.7166 68.0599 37.9441C68.035 37.3109 67.5859 36.8725 66.9346 36.8725C66.7513 36.8725 66.5681 36.8725 66.3838 36.8725C65.7893 36.8725 65.5632 37.1121 65.5632 37.6898Z" fill="white"/>
<path d="M89.7686 38.2373V42.2479C89.7686 42.5295 89.5345 42.7584 89.2467 42.7584C88.9579 42.7584 88.7249 42.5295 88.7249 42.2479V38.2373C88.7249 37.4658 88.2817 36.8725 87.4531 36.8725C86.6086 36.8725 86.1804 37.455 86.1804 38.2373V42.2479C86.1804 42.5295 85.9464 42.7584 85.6586 42.7584C85.3708 42.7584 85.1367 42.5295 85.1367 42.2479V38.2373C85.1367 36.8744 86.03 35.873 87.4512 35.8516C88.8534 35.8516 89.7686 36.9095 89.7686 38.2373Z" fill="white"/>
<path d="M80.9382 37.5573V38.7779H83.1531C83.4409 38.7779 83.6749 39.0059 83.6749 39.2874C83.6749 39.5699 83.4409 39.7979 83.1531 39.7979H80.9382V41.0059C80.9382 41.4345 81.0727 41.6907 81.5447 41.6907H83.1202C83.408 41.6907 83.642 41.9196 83.642 42.2012C83.642 42.4827 83.408 42.7116 83.1202 42.7116H81.5447C80.4911 42.7116 79.8945 42.0015 79.8945 41.0059V37.5573C79.8945 36.5608 80.4911 35.8516 81.5447 35.8516H83.1202C83.408 35.8516 83.642 36.0795 83.642 36.362C83.642 36.6436 83.408 36.8725 83.1202 36.8725H81.5447C81.0727 36.8725 80.9382 37.1287 80.9382 37.5573Z" fill="white"/>
<path d="M91.5687 36.8725C91.2799 36.8725 91.0469 36.6436 91.0469 36.362C91.0469 36.0795 91.2799 35.8516 91.5687 35.8516H95.0025C95.2903 35.8516 95.5244 36.0795 95.5244 36.362C95.5244 36.6436 95.2903 36.8725 95.0025 36.8725H93.8075V42.2664C93.8075 42.5382 93.5734 42.7584 93.2856 42.7584C92.9968 42.7584 92.7638 42.5382 92.7638 42.2664V36.8725H91.5687Z" fill="white"/>
<path d="M104.204 40.8782C104.204 41.3244 104.289 41.6819 104.81 41.6936L106.218 41.6917C106.505 41.6917 106.739 41.9206 106.739 42.2021C106.739 42.4837 106.505 42.7126 106.218 42.7126H104.946C103.767 42.7126 103.16 42.0404 103.16 40.8782V36.362C103.16 36.0805 103.393 35.8516 103.682 35.8516C103.97 35.8516 104.204 36.0805 104.204 36.362V40.8782Z" fill="white"/>
<path d="M52.8435 36.9982C53.6332 36.136 54.7785 35.8516 55.2027 35.8516H56.3032C56.589 35.8516 56.8221 36.0795 56.8221 36.362C56.8221 36.6436 56.589 36.8725 56.3032 36.8725H55.2027C54.9269 36.8725 54.17 37.0732 53.6133 37.6801C52.8286 38.5383 52.8286 40.0249 53.6133 40.8831C54.17 41.49 54.9269 41.6907 55.2027 41.6907H56.3032C56.589 41.6907 56.8221 41.9196 56.8221 42.2012C56.8221 42.4827 56.589 42.7116 56.3032 42.7116H55.2027C54.7785 42.7116 53.6332 42.4262 52.8435 41.565C51.7032 40.3181 51.7032 38.2441 52.8435 36.9982Z" fill="white"/>
<path d="M116 8.57812V8.87135H116.707V10.731H117.021V8.87135H117.728V8.57812H116ZM120.114 8.57812L119.336 9.75881L118.549 8.57812H118.214V10.731H118.529V9.08177L119.307 10.2488H119.35L120.136 9.08177V10.731H120.443V8.57812H120.114Z" fill="white"/>
</svg>
