<svg width="28" height="28" viewBox="0 0 28 28" fill="none" xmlns="http://www.w3.org/2000/svg">
<g clip-path="url(#clip0_1_1061)">
<path d="M21.9159 17.3567C21.8234 17.1711 21.6338 17.0537 21.4264 17.0537H17.1318L14.5402 0.462655C14.4987 0.196382 14.2694 0 13.9999 0H13.9955C13.7246 0.00224218 13.4961 0.202562 13.4585 0.470858L11.1272 17.0537H6.57333C6.27129 17.0537 6.02646 17.2986 6.02646 17.6006C6.02646 17.7189 6.06485 17.8341 6.13583 17.9287L13.5629 27.7812C13.7442 28.0228 14.0869 28.0718 14.3286 27.8906C14.37 27.8595 14.4068 27.8227 14.4379 27.7812L21.8645 17.9287C21.9885 17.7631 22.0083 17.5417 21.9159 17.3567Z" fill="#000509"/>
</g>
<defs>
<clipPath id="clip0_1_1061">
<rect width="28" height="28" fill="white"/>
</clipPath>
</defs>
</svg>
