<svg width="28" height="28" viewBox="0 0 28 28" fill="none" xmlns="http://www.w3.org/2000/svg">
<g clip-path="url(#clip0_1_1503)">
<path d="M27.1023 16.5297C27.0173 16.2337 26.9576 15.8696 26.916 15.5332C26.6266 13.1625 24.2843 12.0876 22.5558 10.8576C20.5753 9.44926 18.6074 8.08851 16.4996 6.87366C13.4948 5.14092 9.71879 5.36339 6.36846 5.60636C5.71673 5.65339 4.942 5.70162 4.35899 6.03382C3.68615 6.41726 4.80815 6.28101 4.8594 6.6741C4.91065 7.07081 4.38009 7.77018 4.22093 8.12227C3.98097 8.65343 3.75669 9.19423 3.45886 9.69705C3.25266 10.0455 2.38388 11.3677 2.41583 10.2204C2.43513 9.53306 2.77878 8.89037 3.06878 8.28385C3.22252 7.9619 3.80191 7.17692 3.66927 6.81337C3.58366 6.57884 3.36902 6.48177 3.35455 6.49504C3.17368 6.66265 3.07179 7.08709 2.9687 7.30594C2.75949 7.75209 2.54064 8.19281 2.32781 8.63715C1.87805 9.57708 1.45059 10.5459 1.29022 11.5829C1.17386 12.3378 1.23415 13.1089 1.01167 13.8468C0.815128 14.4992 0.466048 15.1033 0.317131 15.7713C0.251415 16.0637 -0.257435 17.5915 0.168817 17.7753C0.386465 17.87 0.588437 17.4847 0.661991 17.3346C-0.39128 19.4936 0.572159 22.3068 3.22915 22.5443C4.97998 22.7005 6.19724 21.5019 6.84717 20.0043C7.25895 20.3401 8.07408 20.2448 8.5769 20.2448C11.8736 20.2485 15.1714 20.2448 18.4669 20.2448C19.4099 20.2448 20.3347 20.023 20.4764 18.942C20.5909 19.9259 20.8056 20.8146 21.5224 21.5417C22.3375 22.3683 23.7303 22.7529 24.8149 22.3447C25.8778 21.945 26.6073 20.9653 27.1487 20.0103C27.1608 20.0706 27.2078 20.1285 27.2205 20.1851C28.3931 19.6962 28.0482 17.6614 27.455 16.8758C27.4019 16.8023 27.124 16.6009 27.1023 16.5297ZM5.50873 19.3453C5.50752 19.3586 5.50631 19.3718 5.5045 19.3845C5.21571 21.8323 1.34749 21.5242 1.57057 18.9854C1.58202 18.8521 1.60795 18.7249 1.64352 18.6037C1.65557 18.5627 1.67487 18.5248 1.68934 18.4874C1.71828 18.4084 1.74661 18.3282 1.7846 18.2553C1.80751 18.2106 1.83705 18.1702 1.86358 18.1293C1.90276 18.0665 1.94075 18.002 1.98657 17.943C2.01912 17.9032 2.05711 17.8664 2.09268 17.829C2.14031 17.7772 2.18733 17.7253 2.24039 17.6795C2.28139 17.6427 2.326 17.6138 2.36941 17.5818C2.42428 17.542 2.47974 17.5004 2.53883 17.4667C2.58646 17.4383 2.6365 17.416 2.68654 17.3925C2.74803 17.3624 2.80893 17.334 2.87344 17.3111C2.92649 17.2924 2.98136 17.278 3.03562 17.2641C3.10194 17.2472 3.16826 17.2309 3.23699 17.2207C3.29366 17.2122 3.35154 17.208 3.40942 17.2062C3.50709 17.199 3.60536 17.1935 3.70605 17.2026C4.77439 17.296 5.607 18.3077 5.50873 19.3453ZM20.2672 11.7445L7.49891 10.7057C6.75372 10.6448 6.11947 9.98645 6.21412 9.24428C6.34917 8.18377 6.73865 6.83568 7.82869 6.51855C8.93623 6.19721 10.5972 6.2587 11.759 6.36119C12.5042 6.42691 13.6847 6.6952 14.3865 6.95385C16.1258 7.59473 19.2043 8.9175 20.8478 10.7443C21.347 11.3008 21.0118 11.8048 20.2672 11.7445ZM25.829 19.3435C25.8163 19.4719 25.7928 19.5961 25.7584 19.7143C25.7458 19.7553 25.7247 19.7957 25.7102 19.8367C25.6818 19.9132 25.6547 19.991 25.6179 20.064C25.5944 20.1074 25.5631 20.1496 25.5371 20.1924C25.4992 20.2551 25.4606 20.3172 25.4166 20.3751C25.3828 20.4161 25.346 20.454 25.3087 20.4914C25.2616 20.5421 25.2152 20.5939 25.1633 20.6397C25.1224 20.6759 25.0753 20.7055 25.0307 20.7386C24.9764 20.7766 24.9216 20.8188 24.8655 20.852C24.8173 20.8809 24.7654 20.9038 24.7148 20.9279C24.6539 20.9575 24.5948 20.9858 24.5303 21.0081C24.476 21.0268 24.42 21.0437 24.3651 21.0563C24.3024 21.072 24.2355 21.0883 24.1698 21.0979C24.1107 21.1082 24.0528 21.1106 23.9907 21.1124C23.8948 21.1203 23.7996 21.1251 23.6995 21.1178C22.6155 21.0226 21.8166 20.0664 21.9113 18.9842C21.924 18.8503 21.9487 18.7231 21.983 18.6007C21.9957 18.5615 22.0168 18.5229 22.0301 18.485C22.0584 18.406 22.0879 18.3252 22.1253 18.2528C22.147 18.2082 22.1784 18.1672 22.2043 18.1256C22.2423 18.0629 22.2809 17.9978 22.3267 17.9411C22.3599 17.9008 22.3966 17.8634 22.434 17.8266C22.481 17.7747 22.5281 17.7211 22.5811 17.6771C22.6203 17.6397 22.6691 17.612 22.7107 17.5794C22.7662 17.5402 22.8223 17.4962 22.879 17.4649C22.9254 17.4359 22.976 17.4142 23.0255 17.3895C23.0876 17.3593 23.1478 17.331 23.2136 17.3081C23.2678 17.2906 23.3239 17.2743 23.3769 17.2623C23.4427 17.2448 23.5114 17.2273 23.5783 17.2189C23.6362 17.2092 23.6923 17.2062 23.7514 17.2038C23.849 17.1978 23.9467 17.1911 24.0468 17.2002C25.1302 17.2954 25.9284 18.2528 25.8344 19.3338C25.8302 19.3375 25.829 19.3399 25.829 19.3435Z" fill="#010002"/>
</g>
<defs>
<clipPath id="clip0_1_1503">
<rect width="28" height="28" fill="white"/>
</clipPath>
</defs>
</svg>
