<svg width="28" height="28" viewBox="0 0 28 28" fill="none" xmlns="http://www.w3.org/2000/svg">
<path d="M14 23C13.8988 23 13.7977 22.9728 13.7071 22.9183C13.6086 22.8592 11.2699 21.4462 8.89766 19.3171C7.49165 18.0552 6.36931 16.8036 5.56189 15.5971C4.51705 14.036 3.99162 12.5343 4.0001 11.1338C4.01002 9.50418 4.57092 7.97162 5.57959 6.8184C6.60529 5.64575 7.97411 5 9.43399 5C11.305 5 13.0155 6.09062 14 7.81829C14.9845 6.09066 16.6951 5 18.5661 5C19.9453 5 21.2612 5.58267 22.2715 6.64068C23.3802 7.80175 24.0102 9.44227 23.9999 11.1415C23.9914 12.5396 23.4561 14.039 22.4089 15.598C21.599 16.8038 20.4782 18.0549 19.0777 19.3164C16.7142 21.4453 14.3923 22.8583 14.2946 22.9174C14.2035 22.9724 14.1017 23 14 23Z" fill="black"/>
</svg>
