<svg width="20" height="20" viewBox="0 0 20 20" fill="none" xmlns="http://www.w3.org/2000/svg">
<path d="M15 12.4096V14.4202C15 14.9535 14.7893 15.4649 14.4142 15.8419C14.0391 16.219 13.5304 16.4308 13 16.4308H7C6.46957 16.4308 5.96086 16.219 5.58579 15.8419C5.21071 15.4649 5 14.9535 5 14.4202V12.4096C5 11.6098 5.31607 10.8427 5.87868 10.2771C6.44129 9.71151 7.20435 9.39377 8 9.39377H12C12.7957 9.39377 13.5587 9.71151 14.1213 10.2771C14.6839 10.8427 15 11.6098 15 12.4096ZM10 2.85938C9.40666 2.85938 8.82664 3.03625 8.33329 3.36764C7.83994 3.69903 7.45542 4.17004 7.22836 4.72112C7.0013 5.2722 6.94189 5.87859 7.05764 6.46362C7.1734 7.04864 7.45912 7.58601 7.87868 8.00779C8.29824 8.42957 8.83279 8.7168 9.41473 8.83317C9.99667 8.94954 10.5999 8.88982 11.1481 8.66155C11.6962 8.43329 12.1648 8.04674 12.4944 7.55078C12.8241 7.05482 13 6.47173 13 5.87525C13 5.07539 12.6839 4.30829 12.1213 3.7427C11.5587 3.17712 10.7956 2.85938 10 2.85938Z" fill="white"/>
</svg>
