<svg width="121" height="43" viewBox="0 0 121 43" fill="none" xmlns="http://www.w3.org/2000/svg">
<g clip-path="url(#clip0_1_1931)">
<path fill-rule="evenodd" clip-rule="evenodd" d="M18.08 0.414062H22.7129C23.1331 0.515468 23.4 0.921092 23.3941 1.33257C23.397 8.75665 23.3941 16.1807 23.3951 23.6038C23.4558 25.2829 24.0792 24.7456 25.09 24.9699C25.4764 25.1639 25.5382 25.6485 25.5641 26.0278C25.576 27.2242 25.5611 28.4206 25.5711 29.616C25.574 30.2927 25.3251 30.869 24.5333 30.8602C23.1521 30.8583 21.7439 30.5472 20.5727 29.8091C19.9911 29.4561 19.4942 28.9862 19.044 28.484C16.8541 30.1806 14.0088 31.0386 11.2243 30.83C8.70077 30.6691 6.25289 29.6346 4.3856 27.9672C-0.359789 23.7891 -0.614735 16.4186 3.86774 11.9704C5.64639 10.1539 8.07934 8.96336 10.6328 8.66694C12.9353 8.38515 15.3174 8.81613 17.367 9.87991C17.365 7.14293 17.3699 4.40497 17.364 1.66799C17.3072 1.15901 17.4984 0.527169 18.08 0.414062ZM11.1068 14.5758C9.03439 14.9102 7.27367 16.5552 6.82652 18.5628C6.19712 21.2023 7.80547 23.909 10.4456 24.7066C13.1384 25.5413 16.0693 24.1148 17.0373 21.5153C18.4555 17.7886 15.1222 13.8523 11.1068 14.5758Z" fill="#E21936"/>
<path d="M53.5062 0.414062H58.1401C58.635 0.524244 58.8581 1.04102 58.8372 1.49833C58.8362 10.9808 58.8412 20.4632 58.8362 29.9456C58.8462 30.3932 58.4996 30.8534 58.0166 30.8544C56.5636 30.87 55.1076 30.8622 53.6546 30.8592C53.1547 30.8817 52.7703 30.4117 52.7892 29.9456C52.7852 20.4632 52.7892 10.9808 52.7872 1.4993C52.7603 1.03517 52.9973 0.507668 53.5062 0.414062Z" fill="#E21936"/>
<path d="M63.6694 0.414062H68.2933C68.6279 0.490117 68.8839 0.763133 68.9526 1.09075C69.0452 1.55488 68.9855 2.03168 69.0014 2.50068C69.0024 11.6223 69.0004 20.742 69.0024 29.8627C69.0412 30.3434 68.6837 30.8651 68.1589 30.8563C66.8204 30.8729 65.4829 30.8534 64.1455 30.8661C63.9134 30.8602 63.6704 30.8778 63.4553 30.7851C63.1356 30.6369 62.9464 30.2918 62.9524 29.9515C62.9504 20.4661 62.9534 10.9808 62.9514 1.4954C62.9235 1.0342 63.1625 0.507668 63.6694 0.414062Z" fill="#E21936"/>
<path fill-rule="evenodd" clip-rule="evenodd" d="M89.9571 7.92188C91.2328 7.92383 92.5095 7.92383 93.7872 7.92188C94.5222 7.92383 94.8738 8.26997 94.8817 9.00711C94.8807 13.9019 94.8817 18.7957 94.8807 23.6895C94.8917 24.0844 94.9534 24.5495 95.31 24.7982C95.6854 25.0497 96.1644 24.8674 96.5757 24.9815C96.9721 25.2009 97.0219 25.7089 97.0508 26.1086C97.0567 27.3314 97.0537 28.555 97.0528 29.7778C97.0747 30.2799 96.7132 30.7811 96.1893 30.8455C94.0761 30.9469 91.8672 30.1327 90.5327 28.4848C85.9576 32.0019 79.329 31.5758 75.3096 27.4367C70.7743 22.887 71.1597 15.3986 76.0894 11.2829C79.564 8.32457 85.5095 7.21983 88.8526 10.9582C88.8536 10.2796 88.8497 9.59995 88.8526 8.92228C88.8546 8.19977 89.2908 7.92968 89.9571 7.92188ZM82.5945 14.5766C80.7202 14.8828 79.078 16.2498 78.4685 18.0118C76.9249 22.3079 81.5249 26.4528 85.7883 24.4403C87.9543 23.4448 89.2131 21.0734 88.753 18.7655C88.2332 15.9846 85.4407 14.0667 82.5945 14.5766Z" fill="#E21936"/>
<path d="M100.375 9.08276C100.372 8.51527 100.835 7.91854 101.45 7.92634C102.733 7.91464 104.017 7.92439 105.301 7.92146C106.026 7.86003 106.492 8.62058 106.407 9.25827C106.404 10.1612 106.399 11.0641 106.411 11.965C106.903 10.4722 108.121 9.14418 109.712 8.76879C111.452 8.44604 113.269 8.55037 114.967 9.03498C115.718 9.22316 115.738 9.71849 115.488 10.3299C115.031 11.4638 114.588 12.6037 114.133 13.7377C113.721 14.78 112.864 14.5392 112.023 14.5011C109.989 14.3783 107.959 15.523 107.029 17.2947C106.599 18.0757 106.404 18.965 106.405 19.8493C106.404 23.1577 106.403 26.467 106.406 29.7754C106.43 30.5428 106.041 30.8714 105.296 30.8645C103.929 30.8538 102.563 30.8714 101.197 30.8558C100.715 30.848 100.377 30.3907 100.378 29.9451C100.373 22.991 100.379 16.0369 100.375 9.08276Z" fill="#E21936"/>
<path fill-rule="evenodd" clip-rule="evenodd" d="M44.0154 10.1097C46.4045 11.4777 48.2579 13.7213 49.0954 16.3062C51.0095 22.0483 47.7928 28.312 41.9659 30.2553C37.833 31.6516 33.2071 30.5878 30.1527 27.5213C26.3265 23.7497 25.8037 17.7327 28.9158 13.379C32.269 8.5964 38.9324 7.16501 44.0154 10.1097ZM37.343 14.5745C35.3821 14.8962 33.6891 16.3861 33.1463 18.2563C32.3307 20.9426 33.8962 23.8385 36.6269 24.6878C40.495 25.9397 44.4108 22.4978 43.4667 18.5546C42.8383 15.8732 40.1185 14.0762 37.343 14.5745Z" fill="#E21936"/>
<path d="M114.677 23.9412C117.018 24.1528 118.324 26.1711 118.038 28.3562C117.844 29.4707 117.08 30.4409 116.074 30.9723C114.638 31.7309 112.695 31.4335 111.556 30.2839C109.027 27.7332 111.197 23.5375 114.677 23.9412Z" fill="#E21936"/>
<path fill-rule="evenodd" clip-rule="evenodd" d="M63.3965 37.7043V41.7186C63.3965 42.0004 63.1635 42.2296 62.8746 42.2296C62.5868 42.2296 62.3528 42.0004 62.3528 41.7186V39.6691H59.8093V41.7186C59.8093 42.0004 59.5753 42.2296 59.2875 42.2296C58.9997 42.2296 58.7656 42.0004 58.7656 41.7186V37.7043C58.7656 36.3422 59.6619 35.3379 61.0801 35.3164C62.4892 35.3349 63.3965 36.3529 63.3965 37.7043ZM59.8093 37.7043V38.6472H62.3528V37.7043C62.3528 36.9321 61.9106 36.3383 61.0821 36.3383C60.2395 36.3383 59.8093 36.9175 59.8093 37.7043Z" fill="#000509"/>
<path fill-rule="evenodd" clip-rule="evenodd" d="M102.019 37.7043V41.7186C102.019 42.0004 101.785 42.2296 101.497 42.2296C101.208 42.2296 100.975 42.0004 100.975 41.7186V39.6691H98.4304V41.7186C98.4304 42.0004 98.1964 42.2296 97.9086 42.2296C97.6208 42.2296 97.3867 42.0004 97.3867 41.7186V37.7043C97.3867 36.3422 98.283 35.3379 99.7022 35.3164C101.111 35.3349 102.019 36.3529 102.019 37.7043ZM98.4304 37.7043V38.6472H100.975V37.7043C100.975 36.9321 100.532 36.3383 99.7031 36.3383C98.8606 36.3383 98.4304 36.9175 98.4304 37.7043Z" fill="#000509"/>
<path fill-rule="evenodd" clip-rule="evenodd" d="M78.2046 39.1942C78.6726 39.5803 79.0082 40.1693 79.0082 40.7777V41.7186C79.0082 42.0004 78.7742 42.2296 78.4864 42.2296C78.1986 42.2296 77.9645 42.0004 77.9645 41.7186V40.7777C77.9645 40.1624 77.2943 39.6691 76.6938 39.6691H75.4499V41.7186C75.4499 42.0004 75.2159 42.2296 74.9281 42.2296C74.6403 42.2296 74.4062 42.0004 74.4062 41.7186V37.1563C74.4062 36.0155 75.0994 35.3164 76.2705 35.3164C76.4548 35.3164 76.638 35.3164 76.8213 35.3164C78.0353 35.3164 78.9405 36.194 78.9863 37.3757C79.0132 38.0709 78.7712 38.7545 78.2046 39.1942ZM75.4499 37.1563V38.6472H76.7316C77.5224 38.6472 77.9765 38.184 77.9466 37.4108C77.9217 36.777 77.4726 36.3383 76.8213 36.3383C76.638 36.3383 76.4548 36.3383 76.2705 36.3383C75.676 36.3383 75.4499 36.5781 75.4499 37.1563Z" fill="#000509"/>
<path fill-rule="evenodd" clip-rule="evenodd" d="M68.978 39.1942C69.4461 39.5803 69.7817 40.1693 69.7817 40.7777V41.7186C69.7817 42.0004 69.5476 42.2296 69.2598 42.2296C68.972 42.2296 68.738 42.0004 68.738 41.7186V40.7777C68.738 40.1624 68.0678 39.6691 67.4672 39.6691H66.2234V41.7186C66.2234 42.0004 65.9893 42.2296 65.7015 42.2296C65.4137 42.2296 65.1797 42.0004 65.1797 41.7186V37.1563C65.1797 36.0155 65.8728 35.3164 67.044 35.3164C67.2282 35.3164 67.4115 35.3164 67.5947 35.3164C68.8087 35.3164 69.7139 36.194 69.7598 37.3757C69.7866 38.0709 69.5447 38.7545 68.978 39.1942ZM66.2234 37.1563V38.6472H67.5051C68.2958 38.6472 68.7499 38.184 68.7201 37.4108C68.6952 36.777 68.246 36.3383 67.5947 36.3383C67.4115 36.3383 67.2282 36.3383 67.044 36.3383C66.4494 36.3383 66.2234 36.5781 66.2234 37.1563Z" fill="#000509"/>
<path d="M90.4287 37.7043V41.7186C90.4287 42.0004 90.1947 42.2296 89.9069 42.2296C89.6181 42.2296 89.385 42.0004 89.385 41.7186V37.7043C89.385 36.9321 88.9419 36.3383 88.1133 36.3383C87.2688 36.3383 86.8406 36.9214 86.8406 37.7043V41.7186C86.8406 42.0004 86.6065 42.2296 86.3187 42.2296C86.0309 42.2296 85.7969 42.0004 85.7969 41.7186V37.7043C85.7969 36.3402 86.6902 35.3379 88.1113 35.3164C89.5135 35.3164 90.4287 36.3753 90.4287 37.7043Z" fill="#000509"/>
<path d="M81.5984 37.0237V38.2455H83.8132C84.101 38.2455 84.3351 38.4736 84.3351 38.7554C84.3351 39.0382 84.101 39.2664 83.8132 39.2664H81.5984V40.4754C81.5984 40.9045 81.7328 41.1609 82.2049 41.1609H83.7804C84.0682 41.1609 84.3022 41.39 84.3022 41.6718C84.3022 41.9536 84.0682 42.1828 83.7804 42.1828H82.2049C81.1512 42.1828 80.5547 41.4719 80.5547 40.4754V37.0237C80.5547 36.0262 81.1512 35.3164 82.2049 35.3164H83.7804C84.0682 35.3164 84.3022 35.5446 84.3022 35.8273C84.3022 36.1091 84.0682 36.3383 83.7804 36.3383H82.2049C81.7328 36.3383 81.5984 36.5947 81.5984 37.0237Z" fill="#000509"/>
<path d="M92.2289 36.3383C91.9401 36.3383 91.707 36.1091 91.707 35.8273C91.707 35.5446 91.9401 35.3164 92.2289 35.3164H95.6627C95.9505 35.3164 96.1845 35.5446 96.1845 35.8273C96.1845 36.1091 95.9505 36.3383 95.6627 36.3383H94.4676V41.7372C94.4676 42.0092 94.2336 42.2296 93.9458 42.2296C93.657 42.2296 93.4239 42.0092 93.4239 41.7372V36.3383H92.2289Z" fill="#000509"/>
<path d="M104.864 40.3477C104.864 40.7943 104.95 41.1521 105.47 41.1638L106.878 41.1619C107.165 41.1619 107.4 41.391 107.4 41.6728C107.4 41.9546 107.165 42.1837 106.878 42.1837H105.606C104.427 42.1837 103.82 41.5109 103.82 40.3477V35.8273C103.82 35.5455 104.053 35.3164 104.342 35.3164C104.63 35.3164 104.864 35.5455 104.864 35.8273V40.3477Z" fill="#000509"/>
<path d="M53.5037 36.468C54.2934 35.605 55.4387 35.3203 55.8629 35.3203H56.9634C57.2492 35.3203 57.4822 35.5485 57.4822 35.8312C57.4822 36.113 57.2492 36.3422 56.9634 36.3422H55.8629C55.587 36.3422 54.8302 36.543 54.2735 37.1505C53.4887 38.0095 53.4887 39.4975 54.2735 40.3565C54.8302 40.9639 55.587 41.1648 55.8629 41.1648H56.9634C57.2492 41.1648 57.4822 41.3939 57.4822 41.6757C57.4822 41.9575 57.2492 42.1867 56.9634 42.1867H55.8629C55.4387 42.1867 54.2934 41.901 53.5037 41.039C52.3634 39.7909 52.3634 37.7151 53.5037 36.468Z" fill="#000509"/>
<path d="M116.66 8.01953V8.31302H117.367V10.1744H117.681V8.31302H118.388V8.01953H116.66ZM120.774 8.01953L119.996 9.2013L119.21 8.01953H118.874V10.1744H119.189V8.52364L119.967 9.69175H120.01L120.796 8.52364V10.1744H121.103V8.01953H120.774Z" fill="#E21936"/>
</g>
<defs>
<clipPath id="clip0_1_1931">
<rect width="121" height="43" fill="white"/>
</clipPath>
</defs>
</svg>
