<svg width="21" height="20" viewBox="0 0 21 20" fill="none" xmlns="http://www.w3.org/2000/svg">
<path fill-rule="evenodd" clip-rule="evenodd" d="M7.99162 1.66406C7.7615 1.66406 7.57495 1.85061 7.57495 2.08073C7.57495 2.31085 7.7615 2.4974 7.99162 2.4974H8.40828V4.9974H5.90828C5.44805 4.9974 5.07495 5.3705 5.07495 5.83073V16.6641C5.07495 17.1243 5.44804 17.4974 5.90828 17.4974C5.90828 17.9576 6.28138 18.3307 6.74162 18.3307C7.20185 18.3307 7.57495 17.9576 7.57495 17.4974H12.575C12.575 17.9576 12.948 18.3307 13.4083 18.3307C13.8685 18.3307 14.2416 17.9576 14.2416 17.4974C14.7019 17.4974 15.075 17.1243 15.075 16.6641V5.83073C15.075 5.3705 14.7019 4.9974 14.2416 4.9974H11.7416V2.4974H12.1583C12.3884 2.4974 12.575 2.31085 12.575 2.08073C12.575 1.85061 12.3884 1.66406 12.1583 1.66406H7.99162ZM10.9083 4.9974V2.4974H9.24162V4.9974H10.9083ZM7.57495 7.91406C7.57495 7.68395 7.7615 7.4974 7.99162 7.4974H12.1583C12.3884 7.4974 12.575 7.68395 12.575 7.91406C12.575 8.14418 12.3884 8.33073 12.1583 8.33073H7.99162C7.7615 8.33073 7.57495 8.14418 7.57495 7.91406ZM7.99162 10.8307C7.7615 10.8307 7.57495 11.0173 7.57495 11.2474C7.57495 11.4775 7.7615 11.6641 7.99162 11.6641H12.1583C12.3884 11.6641 12.575 11.4775 12.575 11.2474C12.575 11.0173 12.3884 10.8307 12.1583 10.8307H7.99162Z" fill="white"/>
</svg>
