<svg width="32" height="32" viewBox="0 0 32 32" fill="none" xmlns="http://www.w3.org/2000/svg">
<path d="M24.9963 12.1306C24.9927 12.1306 24.9894 12.131 24.9858 12.131C24.9114 12.1317 24.838 12.1399 24.7657 12.154C23.3857 8.45455 19.8879 5.82031 15.8003 5.82031C11.7128 5.82031 8.21491 8.45455 6.83456 12.154C6.76229 12.1399 6.6893 12.1317 6.6145 12.131C6.61088 12.131 6.60763 12.1306 6.60402 12.1306C5.48059 12.1306 4.60034 13.6804 4.60034 15.6585C4.60034 17.6366 5.48059 19.1864 6.60402 19.1864C6.60691 19.1864 6.60944 19.1864 6.61233 19.1864C6.68677 19.186 6.76012 19.1779 6.83203 19.1638C6.83275 19.1664 7.0239 19.0952 7.20602 19.0274C7.38417 18.9607 7.47523 18.7603 7.41452 18.5762C7.10412 17.6392 6.94694 16.6596 6.94694 15.6589C6.94694 10.6538 10.9185 6.58168 15.8 6.58168C20.6814 6.58168 24.653 10.6538 24.653 15.6589C24.653 16.9297 24.4026 18.1553 23.909 19.306C23.9068 19.3109 23.905 19.3157 23.9028 19.3205C23.8779 19.3783 23.8519 19.4357 23.8259 19.4932C22.5413 22.2971 19.898 24.3215 16.7709 24.6701C16.6072 24.2892 16.2354 24.0236 15.8029 24.0258C15.2522 24.0288 14.7871 24.4812 14.7575 25.0451C14.7246 25.6679 15.2077 26.1836 15.8083 26.1836C16.278 26.1836 16.6759 25.8676 16.811 25.4319C20.1976 25.0695 23.066 22.8936 24.4734 19.8711H24.4738C24.4835 19.8503 24.4926 19.8292 24.502 19.8081C24.5283 19.7503 24.5543 19.6921 24.58 19.6336C24.584 19.6243 24.588 19.615 24.5919 19.6058C24.6544 19.4605 24.7137 19.3135 24.7694 19.1649C24.8413 19.1786 24.9139 19.1867 24.988 19.1871C24.9909 19.1871 24.9934 19.1871 24.9963 19.1871C26.1197 19.1871 27 17.6373 27 15.6592C27 13.6812 26.1197 12.1314 24.9963 12.1314V12.1306Z" fill="#000509"/>
<path d="M13.2121 20.8345C14.0755 21.2737 15.0641 21.5165 16.1136 21.4997C19.3454 21.448 21.9701 18.9073 21.9997 15.8038C22.03 12.6034 19.3374 10 16.0113 10C12.7101 10 10.0369 12.5554 10.0226 15.7249C10.0172 16.9623 10.4188 18.1094 11.1061 19.0498C11.1749 19.1437 11.1851 19.266 11.1329 19.369L10.0344 21.5437C9.89776 21.8141 10.1936 22.0982 10.4752 21.967L12.9162 20.8302C13.0098 20.7865 13.1197 20.7874 13.2117 20.8342L13.2121 20.8345Z" fill="#000509"/>
</svg>
