<svg width="28" height="16" viewBox="0 0 28 16" fill="none" xmlns="http://www.w3.org/2000/svg">
<path d="M17.7806 11.706H10.2194C9.83216 9.59758 7.98498 8.00005 5.76472 8.00005C3.56776 8.00005 1.73616 9.56417 1.32267 11.6396C1.02911 11.5137 0.823539 11.222 0.823539 10.8824V10.4706C0.368703 10.4706 0 10.1019 0 9.64713C0 9.1923 0.368703 8.82359 0.823539 8.82359V1.82359C0.823539 1.36876 1.19224 1.00005 1.64708 1.00005H3.7059C3.7059 0.545217 4.0746 0.176514 4.52944 0.176514C4.98427 0.176514 5.35292 0.545217 5.35292 1.00005H10.2941C10.2941 0.545217 10.6628 0.176514 11.1176 0.176514C11.5725 0.176514 11.9412 0.545217 11.9412 1.00005H17.7042C17.9779 1.00005 18.2337 1.13606 18.3868 1.3629L20.6429 4.70595H25.5294C26.4391 4.70595 27.1765 5.44336 27.1765 6.35303V8.82359C27.6314 8.82359 28.0001 9.1923 28.0001 9.64713C28.0001 10.102 27.6314 10.4707 27.1765 10.4707V10.8824C27.1765 11.222 26.9709 11.5137 26.6774 11.6396C26.2638 9.56417 24.4322 8.00005 22.2353 8.00005C20.015 8.00005 18.1678 9.59758 17.7806 11.706ZM5.76472 15.8236C3.94543 15.8236 2.47062 14.3488 2.47062 12.5295C2.47062 10.7102 3.94543 9.23539 5.76472 9.23539C7.58401 9.23539 9.05882 10.7102 9.05882 12.5295C9.05882 14.3488 7.58401 15.8236 5.76472 15.8236ZM5.76472 14.1765C6.67439 14.1765 7.4118 13.4391 7.4118 12.5294C7.4118 11.6198 6.67439 10.8824 5.76472 10.8824C4.85505 10.8824 4.11764 11.6198 4.11764 12.5294C4.11764 13.4391 4.85505 14.1765 5.76472 14.1765ZM22.2353 15.8236C20.416 15.8236 18.9412 14.3488 18.9412 12.5295C18.9412 10.7102 20.416 9.23539 22.2353 9.23539C24.0546 9.23539 25.5294 10.7102 25.5294 12.5295C25.5294 14.3488 24.0546 15.8236 22.2353 15.8236ZM22.2353 14.1765C23.145 14.1765 23.8824 13.4391 23.8824 12.5294C23.8824 11.6198 23.145 10.8824 22.2353 10.8824C21.3256 10.8824 20.5882 11.6198 20.5882 12.5294C20.5883 13.4391 21.3256 14.1765 22.2353 14.1765Z" fill="black"/>
</svg>
