<svg width="18" height="18" viewBox="0 0 18 18" fill="none" xmlns="http://www.w3.org/2000/svg">
<path fill-rule="evenodd" clip-rule="evenodd" d="M17.4827 8.9974C17.4827 13.5997 13.7517 17.3307 9.14937 17.3307C4.547 17.3307 0.81604 13.5997 0.81604 8.9974C0.81604 4.39502 4.547 0.664062 9.14937 0.664062C13.7517 0.664062 17.4827 4.39502 17.4827 8.9974ZM5.81604 5.8724C6.16122 5.8724 6.44104 6.15222 6.44104 6.4974V8.3724H8.52437V6.4974C8.52437 6.15222 8.80421 5.8724 9.14937 5.8724C9.49454 5.8724 9.77437 6.15222 9.77437 6.4974V8.3724H9.98271C10.3795 8.3724 10.6459 8.37206 10.8521 8.35798C11.0527 8.34431 11.1504 8.31973 11.2147 8.29306C11.4699 8.1874 11.6727 7.98456 11.7785 7.7294C11.805 7.66506 11.8296 7.5674 11.8433 7.36681C11.8574 7.16055 11.8577 6.89423 11.8577 6.4974C11.8577 6.15222 12.1375 5.8724 12.4827 5.8724C12.8279 5.8724 13.1077 6.15222 13.1077 6.4974V6.51845C13.1077 6.88883 13.1077 7.19802 13.0904 7.4519C13.0724 7.71615 13.0335 7.96573 12.9333 8.20773C12.7007 8.76923 12.2545 9.2154 11.693 9.44798C11.451 9.54823 11.2015 9.58706 10.9372 9.60506C10.6834 9.6224 10.3741 9.6224 10.0038 9.6224H9.77437V11.4974C9.77437 11.8426 9.49454 12.1224 9.14937 12.1224C8.80421 12.1224 8.52437 11.8426 8.52437 11.4974V9.6224H6.44104V11.4974C6.44104 11.8426 6.16122 12.1224 5.81604 12.1224C5.47087 12.1224 5.19104 11.8426 5.19104 11.4974V6.4974C5.19104 6.15222 5.47087 5.8724 5.81604 5.8724Z" fill="white"/>
</svg>
